<svg xmlns="http://www.w3.org/2000/svg" viewBox="0 0 500 700" fill="none">
  <defs>
    <!-- Soft Contact Shadow -->
    <filter id="groundShadow_carbon-fiber_back_pixel" x="70" y="580" width="360" height="110" filterUnits="userSpaceOnUse">
      <feGaussianBlur stdDeviation="20" />
      <feColorMatrix type="matrix" values="0 0 0 0 0   0 0 0 0 0   0 0 0 0 0  0 0 0 0.35 0"/>
    </filter>
    
    <filter id="camShadow_carbon-fiber_back_pixel" x="120" y="60" width="280" height="140" filterUnits="userSpaceOnUse">
      <feDropShadow dx="0" dy="6" stdDeviation="8" flood-color="#000000" flood-opacity="0.45"/>
    </filter>

    <linearGradient id="bodyGrad_carbon-fiber_back_pixel" x1="120" y1="50" x2="380" y2="630" gradientUnits="userSpaceOnUse">
      <stop offset="0%" stop-color="#222226" />
      <stop offset="50%" stop-color="#161618" />
      <stop offset="100%" stop-color="#0C0C0E" />
    </linearGradient>

    <linearGradient id="edgeGrad_carbon-fiber_back_pixel" x1="120" y1="50" x2="380" y2="630" gradientUnits="userSpaceOnUse">
      <stop offset="0%" stop-color="#3A3A40" />
      <stop offset="100%" stop-color="#1A1A1D" />
    </linearGradient>

    <linearGradient id="camGrad_carbon-fiber_back_pixel" x1="140" y1="70" x2="250" y2="180" gradientUnits="userSpaceOnUse">
      <stop offset="0%" stop-color="#2A2A30" />
      <stop offset="100%" stop-color="#121214" />
    </linearGradient>

    <linearGradient id="glareGrad_carbon-fiber_back_pixel" x1="120" y1="50" x2="350" y2="550" gradientUnits="userSpaceOnUse">
      <stop offset="0%" stop-color="#FFFFFF" stop-opacity="0.12" />
      <stop offset="35%" stop-color="#FFFFFF" stop-opacity="0.04" />
      <stop offset="70%" stop-color="#FFFFFF" stop-opacity="0" />
    </linearGradient>

    
      <pattern id="carbonPattern_carbon-fiber_back_pixel" width="12" height="12" patternUnits="userSpaceOnUse">
        <rect width="12" height="12" fill="#161618"/>
        <path d="M0 0 L6 6 L0 12 Z" fill="#2E2E36" opacity="0.7"/>
        <path d="M6 6 L12 0 L12 12 Z" fill="#101013" opacity="0.85"/>
        <path d="M0 6 L6 0 L12 6 L6 12 Z" fill="#202026" opacity="0.75"/>
        <line x1="0" y1="0" x2="12" y2="12" stroke="#484856" stroke-width="0.6" opacity="0.4"/>
        <line x1="12" y1="0" x2="0" y2="12" stroke="#050508" stroke-width="0.6" opacity="0.6"/>
      </pattern>
    
  </defs>

  <!-- Ground Drop Shadow -->
  <ellipse cx="250" cy="625" rx="125" ry="20" fill="#000000" filter="url(#groundShadow_carbon-fiber_back_pixel)" />

  <!-- Outer Bumper Profile -->
  <rect x="120" y="56" width="260" height="568" rx="40" fill="url(#edgeGrad_carbon-fiber_back_pixel)" stroke="#3A3A40" stroke-width="1.5"/>

  <!-- Left / Right Physical Buttons -->
  
  
      <rect x="378" y="155" width="4" height="38" rx="2" fill="#3A3A40"/>
      <rect x="378" y="205" width="4" height="54" rx="2" fill="#3A3A40"/>
    

  <!-- Inner Case Backplate with Texture -->
  <rect x="126" y="62" width="248" height="556" rx="36" fill="url(#bodyGrad_carbon-fiber_back_pixel)"/>

  <rect x="126" y="62" width="248" height="556" rx="36" fill="url(#carbonPattern_carbon-fiber_back_pixel)"/>
  
  

  

  <!-- MagSafe Magnetic Core -->
  <g opacity="0.15">
    <circle cx="250" cy="350" r="56" stroke="#FFFFFF" stroke-width="2" stroke-dasharray="10 4" fill="none"/>
    <circle cx="250" cy="350" r="48" stroke="#FFFFFF" stroke-width="1" fill="none" opacity="0.4"/>
    <rect x="247" y="415" width="6" height="24" rx="3" fill="#FFFFFF"/>
  </g>

  <!-- Specular Light Reflection Sweep -->
  <path d="M128 64 C 190 64, 280 200, 368 480 L368 616 C 280 350, 190 180, 128 180 Z" fill="url(#glareGrad_carbon-fiber_back_pixel)"/>

  <!-- Camera Module Plateau -->
  
      <g filter="url(#camShadow_carbon-fiber_back_pixel)">
        <!-- Full-width metallic camera bar -->
        <rect x="118" y="105" width="264" height="66" rx="14" fill="url(#camGrad_carbon-fiber_back_pixel)" stroke="#3A3A40" stroke-width="1.5"/>
        
        <!-- Pill cutout for dual main lenses -->
        <rect x="150" y="118" width="80" height="40" rx="20" fill="#0A0A0E" stroke="#27272A" stroke-width="1.5"/>
        <circle cx="172" cy="138" r="14" fill="#14141C"/>
        <circle cx="169" cy="135" r="3.5" fill="#3B82F6" opacity="0.6"/>
        <circle cx="174" cy="136" r="1.5" fill="#FFFFFF" opacity="0.9"/>

        <circle cx="208" cy="138" r="14" fill="#14141C"/>
        <circle cx="205" cy="135" r="3.5" fill="#3B82F6" opacity="0.6"/>
        <circle cx="210" cy="136" r="1.5" fill="#FFFFFF" opacity="0.9"/>

        <!-- Separate Telephoto Lens -->
        <circle cx="265" cy="138" r="14" fill="#0A0A0E" stroke="#27272A" stroke-width="1.5"/>
        <circle cx="265" cy="138" r="9" fill="#14141C"/>

        <!-- Flash & Sensor -->
        <circle cx="330" cy="130" r="5.5" fill="#F8FAFC" stroke="#94A3B8" stroke-width="1"/>
        <circle cx="330" cy="148" r="3.5" fill="#050508"/>
      </g>
    

  <!-- Luxury Brand Typography Engraving -->
  <text x="250" y="525" text-anchor="middle" font-family="'Cinzel', 'Playfair Display', Georgia, serif" font-size="18" font-weight="700" fill="#A1A1AA" opacity="0.9" letter-spacing="4">CASELÉ</text>
  <text x="250" y="543" text-anchor="middle" font-family="'Inter', sans-serif" font-size="8.5" font-weight="600" fill="#A1A1AA" opacity="0.65" letter-spacing="4">DOHA STUDIO</text>
</svg>