<svg xmlns="http://www.w3.org/2000/svg" viewBox="0 0 500 700" fill="none">
  <defs>
    <!-- Soft Contact Shadow -->
    <filter id="groundShadow_carbon-fiber_back_iphone" x="50" y="580" width="400" height="110" filterUnits="userSpaceOnUse">
      <feGaussianBlur stdDeviation="22" />
      <feColorMatrix type="matrix" values="0 0 0 0 0   0 0 0 0 0   0 0 0 0 0  0 0 0 0.35 0"/>
    </filter>
    
    <filter id="camShadow_carbon-fiber_back_iphone" x="100" y="60" width="320" height="150" filterUnits="userSpaceOnUse">
      <feDropShadow dx="0" dy="8" stdDeviation="10" flood-color="#000000" flood-opacity="0.45"/>
    </filter>

    <!-- Linear Gradients -->
    <linearGradient id="bodyGrad_carbon-fiber_back_iphone" x1="100" y1="50" x2="400" y2="630" gradientUnits="userSpaceOnUse">
      <stop offset="0%" stop-color="#222226" />
      <stop offset="50%" stop-color="#161618" />
      <stop offset="100%" stop-color="#0C0C0E" />
    </linearGradient>

    <linearGradient id="edgeGrad_carbon-fiber_back_iphone" x1="100" y1="50" x2="400" y2="630" gradientUnits="userSpaceOnUse">
      <stop offset="0%" stop-color="#3A3A40" />
      <stop offset="100%" stop-color="#1A1A1D" />
    </linearGradient>

    <linearGradient id="camGrad_carbon-fiber_back_iphone" x1="120" y1="70" x2="240" y2="190" gradientUnits="userSpaceOnUse">
      <stop offset="0%" stop-color="#2A2A30" />
      <stop offset="100%" stop-color="#121214" />
    </linearGradient>

    <!-- Glass Glare Reflection -->
    <linearGradient id="glareGrad_carbon-fiber_back_iphone" x1="100" y1="50" x2="350" y2="550" gradientUnits="userSpaceOnUse">
      <stop offset="0%" stop-color="#FFFFFF" stop-opacity="0.12" />
      <stop offset="35%" stop-color="#FFFFFF" stop-opacity="0.04" />
      <stop offset="70%" stop-color="#FFFFFF" stop-opacity="0" />
    </linearGradient>

    
      <pattern id="carbonPattern_carbon-fiber_back_iphone" width="12" height="12" patternUnits="userSpaceOnUse">
        <rect width="12" height="12" fill="#161618"/>
        <path d="M0 0 L6 6 L0 12 Z" fill="#2A2A30" opacity="0.6"/>
        <path d="M6 6 L12 0 L12 12 Z" fill="#141416" opacity="0.8"/>
        <path d="M0 6 L6 0 L12 6 L6 12 Z" fill="#1E1E22" opacity="0.7"/>
        <line x1="0" y1="0" x2="12" y2="12" stroke="#383842" stroke-width="0.5" opacity="0.3"/>
        <line x1="12" y1="0" x2="0" y2="12" stroke="#0A0A0C" stroke-width="0.5" opacity="0.5"/>
      </pattern>
    
  </defs>

  <!-- Ground Drop Shadow -->
  <ellipse cx="250" cy="625" rx="140" ry="24" fill="#000000" filter="url(#groundShadow_carbon-fiber_back_iphone)" />

  <!-- Outer Bumper Profile -->
  <rect x="96" y="56" width="308" height="568" rx="46" fill="url(#edgeGrad_carbon-fiber_back_iphone)" stroke="#3A3A40" stroke-width="1.5"/>

  <!-- Left / Right Physical Buttons -->
  
    <rect x="98" y="145" width="4" height="28" rx="2" fill="#3A3A40"/>
    <rect x="98" y="190" width="4" height="46" rx="2" fill="#3A3A40"/>
    <rect x="98" y="245" width="4" height="46" rx="2" fill="#3A3A40"/>
  
  
    <rect x="398" y="195" width="4" height="60" rx="2" fill="#3A3A40"/>
  

  <!-- Inner Case Backplate -->
  <rect x="102" y="62" width="296" height="556" rx="42" fill="url(#bodyGrad_carbon-fiber_back_iphone)"/>

  <rect x="102" y="62" width="296" height="556" rx="42" fill="url(#carbonPattern_carbon-fiber_back_iphone)"/>
  
  

  

  <!-- MagSafe Magnetic Core (Prominent for Clear, subtle for others) -->
  <g opacity="0.12">
    <circle cx="250" cy="350" r="64" stroke="#FFFFFF" stroke-width="2" stroke-dasharray="10 4" fill="none"/>
    <circle cx="250" cy="350" r="56" stroke="#FFFFFF" stroke-width="1" fill="none" opacity="0.4"/>
    <rect x="247" y="424" width="6" height="28" rx="3" fill="#FFFFFF"/>
  </g>

  <!-- Specular Light Reflection Sweep -->
  <path d="M104 64 C 180 64, 300 200, 396 480 L396 616 C 300 350, 180 180, 104 180 Z" fill="url(#glareGrad_carbon-fiber_back_iphone)"/>

  <!-- Camera Module Plateau -->
  
      <g filter="url(#camShadow_carbon-fiber_back_iphone)">
        <rect x="122" y="70" width="112" height="118" rx="30" fill="url(#camGrad_carbon-fiber_back_iphone)" stroke="#3A3A40" stroke-width="1.2"/>
        
        <!-- Lens 1 (Top Left) -->
        <circle cx="156" cy="106" r="21" fill="#0A0A0E" stroke="#3A3A40" stroke-width="2.5"/>
        <circle cx="156" cy="106" r="14" fill="#14141C"/>
        <circle cx="156" cy="106" r="8" fill="#0A0A10"/>
        <circle cx="153" cy="103" r="4" fill="#3B82F6" opacity="0.6"/>
        <circle cx="158" cy="104" r="2" fill="#FFFFFF" opacity="0.9"/>

        <!-- Lens 2 (Bottom Left) -->
        <circle cx="156" cy="152" r="21" fill="#0A0A0E" stroke="#3A3A40" stroke-width="2.5"/>
        <circle cx="156" cy="152" r="14" fill="#14141C"/>
        <circle cx="156" cy="152" r="8" fill="#0A0A10"/>
        <circle cx="153" cy="149" r="4" fill="#3B82F6" opacity="0.6"/>
        <circle cx="158" cy="150" r="2" fill="#FFFFFF" opacity="0.9"/>

        <!-- Lens 3 (Right Center) -->
        <circle cx="202" cy="129" r="21" fill="#0A0A0E" stroke="#3A3A40" stroke-width="2.5"/>
        <circle cx="202" cy="129" r="14" fill="#14141C"/>
        <circle cx="202" cy="129" r="8" fill="#0A0A10"/>
        <circle cx="199" cy="126" r="4" fill="#3B82F6" opacity="0.6"/>
        <circle cx="204" cy="127" r="2" fill="#FFFFFF" opacity="0.9"/>

        <!-- Flash & Sensor -->
        <circle cx="202" cy="94" r="7" fill="#F8FAFC" stroke="#94A3B8" stroke-width="1.2"/>
        <circle cx="202" cy="94" r="3" fill="#FEF08A"/>
        <circle cx="202" cy="164" r="5" fill="#050508"/>
      </g>
    

  <!-- Luxury Brand Typography Engraving -->
  <text x="250" y="525" text-anchor="middle" font-family="'Cinzel', 'Playfair Display', Georgia, serif" font-size="20" font-weight="700" fill="#A1A1AA" opacity="0.9" letter-spacing="4">CASELÉ</text>
  <text x="250" y="545" text-anchor="middle" font-family="'Inter', sans-serif" font-size="9" font-weight="600" fill="#A1A1AA" opacity="0.65" letter-spacing="4">DOHA STUDIO</text>
</svg>