<svg xmlns="http://www.w3.org/2000/svg" viewBox="0 0 500 700" fill="none">
  <defs>
    <filter id="angleShadow_forest-green_angle_samsung" x="60" y="540" width="380" height="140" filterUnits="userSpaceOnUse">
      <feGaussianBlur stdDeviation="22" />
      <feColorMatrix type="matrix" values="0 0 0 0 0   0 0 0 0 0   0 0 0 0 0  0 0 0 0.38 0"/>
    </filter>

    <linearGradient id="bodyAngleGrad_forest-green_angle_samsung" x1="140" y1="80" x2="360" y2="600" gradientUnits="userSpaceOnUse">
      <stop offset="0%" stop-color="#143026" />
      <stop offset="50%" stop-color="#0D221B" />
      <stop offset="100%" stop-color="#071410" />
    </linearGradient>

    <linearGradient id="rimGrad_forest-green_angle_samsung" x1="120" y1="80" x2="380" y2="600" gradientUnits="userSpaceOnUse">
      <stop offset="0%" stop-color="#C5A869" />
      <stop offset="100%" stop-color="#8A6D33" />
    </linearGradient>
  </defs>

  <!-- Realistic Ground Ambient Shadow -->
  <ellipse cx="255" cy="615" rx="140" ry="24" fill="#000000" filter="url(#angleShadow_forest-green_angle_samsung)" transform="rotate(-6 255 615)"/>

  <!-- Slender 3D Angled Phone (Width 240px x Height 550px, ratio 1:2.3) -->
  <g transform="translate(250, 335) rotate(-8) skewX(-3) scale(0.95) translate(-250, -335)">
    <!-- 3D Extrusion Side Wall (Thickness chamfer) -->
    <rect x="122" y="66" width="256" height="558" rx="20" fill="#050507" stroke="#8A6D33" stroke-width="1"/>
    
    <!-- Outer Metallic Rim -->
    <rect x="128" y="60" width="250" height="554" rx="18" fill="url(#rimGrad_forest-green_angle_samsung)" stroke="#C5A869" stroke-width="2"/>
    
    <!-- Tactile Side Buttons in 3D -->
    <rect x="122" y="150" width="6" height="28" rx="2" fill="#C5A869"/>
    <rect x="122" y="195" width="6" height="44" rx="2" fill="#C5A869"/>
    <rect x="122" y="250" width="6" height="44" rx="2" fill="#C5A869"/>

    <!-- Case Face -->
    <rect x="134" y="66" width="238" height="542" rx="14" fill="url(#bodyAngleGrad_forest-green_angle_samsung)"/>

    <!-- Camera Module in 3D Perspective -->
    
      <g>
        <!-- Vertical Column of Floating Lenses in 3D Perspective -->
        <circle cx="168" cy="98" r="16" fill="#0A0A0E" stroke="#C5A869" stroke-width="2"/>
        <circle cx="168" cy="98" r="10" fill="#14141C"/>
        <circle cx="165" cy="95" r="3.5" fill="#3B82F6" opacity="0.7"/>

        <circle cx="168" cy="140" r="16" fill="#0A0A0E" stroke="#C5A869" stroke-width="2"/>
        <circle cx="168" cy="140" r="10" fill="#14141C"/>
        <circle cx="165" cy="137" r="3.5" fill="#3B82F6" opacity="0.7"/>

        <circle cx="168" cy="182" r="16" fill="#0A0A0E" stroke="#C5A869" stroke-width="2"/>
        <circle cx="168" cy="182" r="10" fill="#14141C"/>
        <circle cx="165" cy="179" r="3.5" fill="#3B82F6" opacity="0.7"/>

        <circle cx="206" cy="110" r="10" fill="#0A0A0E" stroke="#C5A869" stroke-width="1.5"/>
        <circle cx="206" cy="140" r="5" fill="#F8FAFC" stroke="#94A3B8" stroke-width="1"/>
        <circle cx="206" cy="170" r="10" fill="#0A0A0E" stroke="#C5A869" stroke-width="1.5"/>
      </g>
    

    <!-- MagSafe Ring in Perspective -->
    <ellipse cx="253" cy="350" rx="50" ry="56" stroke="#FFFFFF" stroke-width="1.5" stroke-dasharray="8 4" fill="none" opacity="0.15"/>

    <!-- Dynamic Sheen Reflection -->
    <path d="M136 68 C 210 68, 290 240, 368 500 L368 600 C 270 320, 180 180, 136 180 Z" fill="#FFFFFF" opacity="0.08"/>

    <!-- CASELÉ Brand Typography -->
    <text x="253" y="525" text-anchor="middle" font-family="'Cinzel', serif" font-size="17" font-weight="700" fill="#DFCA9B" opacity="0.9" letter-spacing="4">CASELÉ</text>
    <text x="253" y="543" text-anchor="middle" font-family="'Inter', sans-serif" font-size="8.5" font-weight="600" fill="#DFCA9B" opacity="0.65" letter-spacing="3">PRECISION FIT</text>
  </g>
</svg>