<svg xmlns="http://www.w3.org/2000/svg" viewBox="0 0 400 600" fill="none">
  <defs>
    <filter id="matteShadow" x="60" y="490" width="280" height="90" filterUnits="userSpaceOnUse">
      <feGaussianBlur stdDeviation="16" />
      <feColorMatrix type="matrix" values="0 0 0 0 0   0 0 0 0 0   0 0 0 0 0  0 0 0 0.25 0"/>
    </filter>

    <linearGradient id="matteBody" x1="100" y1="50" x2="300" y2="520" gradientUnits="userSpaceOnUse">
      <stop offset="0%" stop-color="#1F1F23" />
      <stop offset="50%" stop-color="#121214" />
      <stop offset="100%" stop-color="#09090A" />
    </linearGradient>
  </defs>

  <!-- Ground Drop Shadow -->
  <ellipse cx="200" cy="535" rx="100" ry="18" fill="#000000" filter="url(#matteShadow)" />

  <!-- Outer Armor Bumper -->
  <rect x="95" y="45" width="210" height="470" rx="42" fill="#27272A" stroke="#3F3F46" stroke-width="1.8"/>

  <!-- Inner Body -->
  <rect x="100" y="50" width="200" height="460" rx="38" fill="url(#matteBody)"/>

  <!-- Corner Reinforced Armor Pads -->
  <rect x="97" y="47" width="30" height="30" rx="12" fill="#3F3F46" opacity="0.6"/>
  <rect x="273" y="47" width="30" height="30" rx="12" fill="#3F3F46" opacity="0.6"/>
  <rect x="97" y="483" width="30" height="30" rx="12" fill="#3F3F46" opacity="0.6"/>
  <rect x="273" y="483" width="30" height="30" rx="12" fill="#3F3F46" opacity="0.6"/>

  <!-- Buttons -->
  <rect x="91" y="125" width="4" height="26" rx="2" fill="#3F3F46"/>
  <rect x="91" y="165" width="4" height="42" rx="2" fill="#3F3F46"/>
  <rect x="91" y="215" width="4" height="42" rx="2" fill="#3F3F46"/>
  <rect x="305" y="170" width="4" height="54" rx="2" fill="#3F3F46"/>

  <!-- Camera Bump Island -->
  <rect x="115" y="65" width="95" height="100" rx="26" fill="#18181B" stroke="#3F3F46" stroke-width="2"/>

  <!-- Lenses -->
  <circle cx="145" cy="95" r="17" fill="#09090B" stroke="#3F3F46" stroke-width="2"/>
  <circle cx="145" cy="95" r="11" fill="#18181B"/>
  <circle cx="146" cy="94" r="1.5" fill="#FFFFFF" opacity="0.9"/>

  <circle cx="145" cy="135" r="17" fill="#09090B" stroke="#3F3F46" stroke-width="2"/>
  <circle cx="145" cy="135" r="11" fill="#18181B"/>
  <circle cx="146" cy="134" r="1.5" fill="#FFFFFF" opacity="0.9"/>

  <circle cx="185" cy="115" r="17" fill="#09090B" stroke="#3F3F46" stroke-width="2"/>
  <circle cx="185" cy="115" r="11" fill="#18181B"/>
  <circle cx="186" cy="114" r="1.5" fill="#FFFFFF" opacity="0.9"/>

  <!-- Flash & Sensor -->
  <circle cx="185" cy="85" r="6" fill="#F4F4F5" stroke="#71717A" stroke-width="1.2"/>
  <circle cx="185" cy="145" r="4.5" fill="#000000"/>

  <!-- Brand Typography -->
  <text x="200" y="440" text-anchor="middle" font-family="serif" font-size="15" font-weight="600" fill="#E4E4E7" opacity="0.9" letter-spacing="2">CASELÉ</text>
  <text x="200" y="456" text-anchor="middle" font-family="sans-serif" font-size="8" font-weight="500" fill="#A1A1AA" opacity="0.75" letter-spacing="3">TACTICAL ARMOR</text>
</svg>
